<svg xmlns="http://www.w3.org/2000/svg" width="512" height="512" viewBox="0 0 512 512"><path fill="#008cdb" d="M86.8 163.2v84.1l73.3-42.1-73.3-42zm260.9-50.3v84.2l72.7-42-72.7-42.2zM86.8 263.6v84.1l73.3-42.1-73.3-42zm260.9-50.2v84.1l72.7-42-72.7-42.1zm-173.5 0v84.1l72.6-42-72.6-42.1zm8 13.9l48.6 28.2-48.6 28.1v-56.3zm78.8-64.1v84.1l72.6-42.1-72.6-42zm0 100.4v84.1l72.6-42.1-72.6-42zm8 13.8l48.7 28.1-48.7 28.3v-56.4zm-94.8-164.5v84.2l72.6-42-72.6-42.2zM251.5 64l-72.7 42 72.7 42.1V64zm-8 70.2L194.8 106l48.7-28.1v56.3zM261 64v84.1l72.6-42.1L261 64zm8 13.9l48.7 28.1-48.7 28.2V77.9zM164.8 297.4v-84.2l-73.2 42.2 73.2 42zm182.9 100.4l72.7-42.1-72.7-42.1v84.2zm-182.9 0v-84.2l-73.2 42.1 73.2 42.1zm173.5-100.4v-84.1l-72.5 42.1 72.5 42zm-8-13.8l-48.5-28.1 48.5-28.2v56.3zm8-86.5v-84.2l-72.5 42.2 72.5 42zm86.9 150.5v-84.1l-72.5 42 72.5 42.1zm-72.6-142.4l72.5 42.1v-84.1l-72.5 42zm-14.3 192.6v-84.2l-72.5 42.1 72.5 42.1zm-8-13.9l-48.6-28.2 48.6-28.2v56.4zm-156.1-70.3v84.2l72.6-42.1-72.6-42.1zm8 13.9l48.7 28.2-48.7 28.2v-56.4zM261 448l72.6-42.1-72.6-42V448zm8-70.2l48.7 28.1-48.7 28.2v-56.3zM164.8 197.1v-84.2l-73.2 42.2 73.2 42zM251.5 448v-84.1l-72.7 42 72.7 42.1zm-8-13.9l-48.7-28.2 48.7-28.1v56.3zm8-86.5v-84.1l-72.7 42 72.7 42.1zm-8-13.8l-48.7-28.2 48.7-28.1v56.3zm8-86.5v-84.1l-72.7 42 72.7 42.1z"/></svg>